<svg width="256" height="254" viewBox="0 0 256 254" fill="none" xmlns="http://www.w3.org/2000/svg">
<g clip-path="url(#clip0_1_8)">
<mask id="mask0_1_8" style="mask-type:luminance" maskUnits="userSpaceOnUse" x="0" y="0" width="256" height="254">
<path d="M180.828 252.605C182.857 253.396 185.027 253.761 187.204 253.678C189.38 253.594 191.516 253.064 193.478 252.119L245.979 226.857C248.683 225.555 250.964 223.516 252.561 220.975C254.158 218.434 255.004 215.494 255.004 212.493V41.197C255.004 38.1961 254.157 35.2561 252.561 32.7152C250.964 30.1743 248.683 28.1357 245.979 26.834L193.479 1.571C190.512 0.143505 187.175 -0.326508 183.93 0.226017C180.685 0.778543 177.691 2.32628 175.364 4.655L74.857 96.35L31.077 63.118C29.1022 61.6189 26.6649 60.8585 24.188 60.9687C21.7111 61.0788 19.351 62.0526 17.517 63.721L3.476 76.494C-1.154 80.705 -1.159 87.989 3.464 92.207L41.431 126.845L3.464 161.482C-1.159 165.701 -1.154 172.984 3.476 177.196L17.517 189.968C19.3508 191.637 21.7109 192.611 24.1878 192.721C26.6647 192.831 29.1021 192.071 31.077 190.572L74.857 157.339L175.364 249.034C176.918 250.59 178.779 251.807 180.828 252.605V252.605ZM191.292 68.956L115.03 126.845L191.292 184.733V68.956V68.956Z" fill="#0065A9"/>
</mask>
<g mask="url(#mask0_1_8)">
<path d="M246.135 26.873L193.593 1.575C190.626 0.146351 187.288 -0.324664 184.041 0.227135C180.794 0.778934 177.799 2.32626 175.47 4.655L3.466 161.482C-1.16 165.701 -1.154 172.984 3.478 177.196L17.528 189.968C19.3635 191.637 21.7251 192.611 24.2034 192.721C26.6817 192.832 29.1205 192.071 31.097 190.572L238.229 33.436C245.178 28.165 255.159 33.121 255.159 41.843V41.233C255.159 38.2327 254.312 35.2934 252.716 32.753C251.119 30.2127 248.838 28.1745 246.135 26.873Z" fill="#0065A9"/>
</g>
<mask id="mask1_1_8" style="mask-type:luminance" maskUnits="userSpaceOnUse" x="0" y="0" width="256" height="254">
<path d="M180.828 252.605C182.857 253.396 185.027 253.761 187.204 253.678C189.38 253.594 191.516 253.064 193.478 252.119L245.979 226.857C248.683 225.555 250.964 223.516 252.561 220.975C254.158 218.434 255.004 215.494 255.004 212.493V41.197C255.004 38.1961 254.157 35.2561 252.561 32.7152C250.964 30.1743 248.683 28.1357 245.979 26.834L193.479 1.571C190.512 0.143505 187.175 -0.326508 183.93 0.226017C180.685 0.778543 177.691 2.32628 175.364 4.655L74.857 96.35L31.077 63.118C29.1022 61.6189 26.6649 60.8585 24.188 60.9687C21.7111 61.0788 19.351 62.0526 17.517 63.721L3.476 76.494C-1.154 80.705 -1.159 87.989 3.464 92.207L41.431 126.845L3.464 161.482C-1.159 165.701 -1.154 172.984 3.476 177.196L17.517 189.968C19.3508 191.637 21.7109 192.611 24.1878 192.721C26.6647 192.831 29.1021 192.071 31.077 190.572L74.857 157.339L175.364 249.034C176.918 250.59 178.779 251.807 180.828 252.605V252.605ZM191.292 68.956L115.03 126.845L191.292 184.733V68.956V68.956Z" fill="#007ACC"/>
</mask>
<g mask="url(#mask1_1_8)">
<path d="M246.135 226.816L193.593 252.114C190.626 253.542 187.288 254.013 184.041 253.461C180.794 252.91 177.799 251.362 175.47 249.034L3.466 92.207C-1.16 87.989 -1.154 80.705 3.478 76.494L17.528 63.721C19.3636 62.0522 21.7252 61.0784 24.2036 60.9682C26.6819 60.8581 29.1206 61.6186 31.097 63.118L238.229 220.253C245.178 225.524 255.159 220.568 255.159 211.845V212.456C255.159 215.456 254.312 218.396 252.716 220.936C251.119 223.476 248.838 225.514 246.135 226.816Z" fill="#007ACC"/>
</g>
<mask id="mask2_1_8" style="mask-type:luminance" maskUnits="userSpaceOnUse" x="0" y="0" width="256" height="254">
<path d="M180.828 252.605C182.857 253.396 185.027 253.761 187.204 253.678C189.38 253.594 191.516 253.064 193.478 252.119L245.979 226.857C248.683 225.555 250.964 223.516 252.561 220.975C254.158 218.434 255.004 215.494 255.004 212.493V41.197C255.004 38.1961 254.157 35.2561 252.561 32.7152C250.964 30.1743 248.683 28.1357 245.979 26.834L193.479 1.571C190.512 0.143505 187.175 -0.326508 183.93 0.226017C180.685 0.778543 177.691 2.32628 175.364 4.655L74.857 96.35L31.077 63.118C29.1022 61.6189 26.6649 60.8585 24.188 60.9687C21.7111 61.0788 19.351 62.0526 17.517 63.721L3.476 76.494C-1.154 80.705 -1.159 87.989 3.464 92.207L41.431 126.845L3.464 161.482C-1.159 165.701 -1.154 172.984 3.476 177.196L17.517 189.968C19.3508 191.637 21.7109 192.611 24.1878 192.721C26.6647 192.831 29.1021 192.071 31.077 190.572L74.857 157.339L175.364 249.034C176.918 250.59 178.779 251.807 180.828 252.605V252.605ZM191.292 68.956L115.03 126.845L191.292 184.733V68.956V68.956Z" fill="#1F9CF0"/>
</mask>
<g mask="url(#mask2_1_8)">
<path d="M193.428 252.134C190.46 253.562 187.121 254.032 183.874 253.48C180.627 252.927 177.632 251.38 175.303 249.051C181.184 254.931 191.241 250.766 191.241 242.448V11.273C191.241 2.955 181.184 -1.21 175.303 4.671C177.632 2.34208 180.627 0.794355 183.874 0.241867C187.121 -0.31062 190.46 0.159425 193.428 1.587L245.961 26.85C248.666 28.1508 250.949 30.189 252.546 32.73C254.144 35.2711 254.991 38.2115 254.991 41.213V212.51C254.991 218.635 251.481 224.219 245.961 226.873L193.428 252.134Z" fill="#1F9CF0"/>
</g>
<mask id="mask3_1_8" style="mask-type:luminance" maskUnits="userSpaceOnUse" x="0" y="0" width="256" height="254">
<path d="M180.828 252.604C182.857 253.395 185.027 253.761 187.203 253.677C189.38 253.593 191.515 253.063 193.478 252.118L245.979 226.856C248.683 225.554 250.964 223.516 252.561 220.974C254.157 218.433 255.004 215.493 255.004 212.492V41.1962C255.004 38.1953 254.157 35.2553 252.561 32.7144C250.964 30.1735 248.683 28.1349 245.979 26.8332L193.479 1.5702C190.512 0.142704 187.175 -0.327309 183.93 0.225216C180.684 0.777742 177.691 2.32548 175.364 4.6542L74.8569 96.3492L31.0769 63.1172C29.1021 61.6181 26.6648 60.8577 24.1879 60.9679C21.711 61.078 19.3508 62.0518 17.5169 63.7202L3.47588 76.4932C-1.15412 80.7042 -1.15912 87.9882 3.46388 92.2062L41.4309 126.844L3.46388 161.481C-1.15912 165.7 -1.15412 172.983 3.47588 177.195L17.5169 189.967C19.3507 191.636 21.7108 192.61 24.1877 192.72C26.6646 192.83 29.1019 192.07 31.0769 190.571L74.8569 157.338L175.364 249.033C176.918 250.59 178.779 251.806 180.828 252.604V252.604ZM191.292 68.9552L115.03 126.844L191.292 184.732V68.9552V68.9552Z" fill="url(#paint0_linear_1_8)" fill-opacity="0.25"/>
</mask>
<g mask="url(#mask3_1_8)">
<path d="M180.828 252.604C182.857 253.395 185.027 253.76 187.203 253.677C189.38 253.593 191.515 253.063 193.478 252.118L245.978 226.855C248.682 225.554 250.964 223.515 252.56 220.974C254.157 218.433 255.004 215.493 255.004 212.492V41.1961C255.004 38.1952 254.157 35.2552 252.561 32.7143C250.964 30.1734 248.683 28.1348 245.979 26.8331L193.477 1.56907C190.51 0.141808 187.174 -0.328081 183.928 0.22444C180.683 0.77696 177.69 2.32457 175.363 4.65307L74.8568 96.3491L31.0768 63.1171C29.1019 61.618 26.6646 60.8576 24.1878 60.9677C21.7109 61.0779 19.3507 62.0516 17.5168 63.7201L3.47576 76.4931C-1.15424 80.7041 -1.15924 87.9881 3.46376 92.2061L41.4308 126.844L3.46376 161.481C-1.15924 165.7 -1.15424 172.983 3.47576 177.195L17.5168 189.967C19.3506 191.636 21.7107 192.61 24.1876 192.72C26.6645 192.83 29.1018 192.07 31.0768 190.571L74.8568 157.338L175.363 249.033C176.917 250.59 178.778 251.806 180.828 252.604ZM191.292 68.9541L115.03 126.844L191.292 184.732V68.9541Z" fill="url(#paint1_linear_1_8)" fill-opacity="0.25"/>
</g>
</g>
<defs>
<linearGradient id="paint0_linear_1_8" x1="12750.2" y1="0" x2="12750.2" y2="25368.9" gradientUnits="userSpaceOnUse">
<stop stop-color="white"/>
<stop offset="1" stop-color="white" stop-opacity="0"/>
</linearGradient>
<linearGradient id="paint1_linear_1_8" x1="12750.2" y1="-0.000801086" x2="12750.2" y2="25368.9" gradientUnits="userSpaceOnUse">
<stop stop-color="white"/>
<stop offset="1" stop-color="white" stop-opacity="0"/>
</linearGradient>
<clipPath id="clip0_1_8">
<rect width="256" height="254" fill="white"/>
</clipPath>
</defs>
</svg>
